<?xml version="1.0" encoding="UTF-8" standalone="no"?>
<!-- Generator: Adobe Illustrator 16.0.0, SVG Export Plug-In . SVG Version: 6.00 Build 0)  -->

<svg
   xmlns:dc="http://purl.org/dc/elements/1.1/"
   xmlns:cc="http://creativecommons.org/ns#"
   xmlns:rdf="http://www.w3.org/1999/02/22-rdf-syntax-ns#"
   xmlns:svg="http://www.w3.org/2000/svg"
   xmlns="http://www.w3.org/2000/svg"
   xmlns:sodipodi="http://sodipodi.sourceforge.net/DTD/sodipodi-0.dtd"
   xmlns:inkscape="http://www.inkscape.org/namespaces/inkscape"
   version="1.1"
   x="0px"
   y="0px"
   width="24px"
   height="24px"
   viewBox="0 0 24 24"
   enable-background="new 0 0 24 24"
   xml:space="preserve"
   id="svg2"
   inkscape:version="0.91 r13725"
   sodipodi:docname="other-character-icon.svg"><metadata
     id="metadata18"><rdf:RDF><cc:Work
         rdf:about=""><dc:format>image/svg+xml</dc:format><dc:type
           rdf:resource="http://purl.org/dc/dcmitype/StillImage" /><dc:title></dc:title></cc:Work></rdf:RDF></metadata><defs
     id="defs16" /><sodipodi:namedview
     pagecolor="#ffffff"
     bordercolor="#666666"
     borderopacity="1"
     objecttolerance="10"
     gridtolerance="10"
     guidetolerance="10"
     inkscape:pageopacity="0"
     inkscape:pageshadow="2"
     inkscape:window-width="1516"
     inkscape:window-height="914"
     id="namedview14"
     showgrid="false"
     inkscape:zoom="9.8333333"
     inkscape:cx="-22.677966"
     inkscape:cy="12"
     inkscape:window-x="2006"
     inkscape:window-y="28"
     inkscape:window-maximized="0"
     inkscape:current-layer="svg2" /><g
     id="Frames-24px"
     inkscape:export-filename="C:\Users\Simon\Documents\GitHub\QuestOfRealms\assets\images\player-icon.png"
     inkscape:export-xdpi="90"
     inkscape:export-ydpi="90"><rect
       fill="none"
       width="24"
       height="24"
       id="rect5" /></g><g
     id="Solid"
     style="fill:#ff0000"
     inkscape:export-filename="C:\Users\Simon\Documents\GitHub\QuestOfRealms\assets\images\other-character-player-icon.png"
     inkscape:export-xdpi="108"
     inkscape:export-ydpi="108"><g
       id="g8"
       style="fill:#ff0000"><circle
         fill="#757575"
         cx="12"
         cy="5"
         r="3"
         id="circle10"
         style="fill:#ff0000" /><path
         fill="#757575"
         d="M12,8c-2.757,0-5,2.243-5,5v3c0,0.552,0.448,1,1,1h1v4c0,0.552,0.448,1,1,1h4c0.552,0,1-0.448,1-1v-4h1    c0.552,0,1-0.448,1-1v-3C17,10.243,14.757,8,12,8z"
         id="path12"
         style="fill:#ff0000" /></g></g><path
     style="fill:#483737;fill-opacity:1"
     d="m 9.3141248,21.592197 -0.2632774,-0.312887 0,-2.178638 0,-2.178638 -0.6677024,0 c -1.262242,0 -1.3668273,-0.19254 -1.3644301,-2.511899 0.00111,-1.072115 0.054931,-1.959263 0.1445075,-2.381864 C 7.6564856,9.7011647 9.6463826,8.0745763 12,8.0745763 c 2.353617,0 4.343514,1.6265884 4.836778,3.9536947 0.08958,0.422601 0.143399,1.309749 0.144507,2.381864 0.0024,2.319359 -0.102188,2.511899 -1.36443,2.511899 l -0.667702,0 0,2.178638 0,2.178638 -0.263278,0.312887 -0.263277,0.312888 -2.422598,0 -2.422598,0 -0.2632772,-0.312888 z"
     id="path4138"
     inkscape:connector-curvature="0"
     inkscape:export-filename="C:\Users\Simon\Documents\GitHub\QuestOfRealms\assets\images\other-character-player-icon.png"
     inkscape:export-xdpi="108"
     inkscape:export-ydpi="108" /><path
     style="fill:#483737;fill-opacity:1"
     d="M 11.338983,7.8834061 C 10.011045,7.5328039 9.0508474,6.3052811 9.0508474,4.9582384 c 0,-0.5625331 0.3200065,-1.410587 0.7112641,-1.8849312 0.1697377,-0.2057828 0.5898405,-0.5146811 0.9335615,-0.6864407 2.331403,-1.1650157 4.850523,0.9962648 4.101408,3.518806 -0.191737,0.6456481 -0.832748,1.3857993 -1.487544,1.7176094 -0.534548,0.2708758 -1.464747,0.3936674 -1.970554,0.2601242 z"
     id="path4140"
     inkscape:connector-curvature="0"
     inkscape:export-xdpi="108"
     inkscape:export-ydpi="108"
     inkscape:export-filename="C:\Users\Simon\Documents\GitHub\QuestOfRealms\assets\images\other-character-player-icon.png" /></svg>